# xmcd CD database file
#
# Track frame offsets:
#	150
#	15706
#	33208
#	83967
#	101756
#	124930
#	146857
#	167108
#	199577
#	219982
#	243240
#	279345
#	315246
#
# Disc length: 4424 seconds
#
# Revision: 0
# Processed by: cddbd v1.5.2PL0 Copyright (c) Steve Scherf et al.
# Submitted via: CDex 1.70beta2
#
DISCID=ae11460d
DTITLE=Modern Jazz Quartett - Fontessa - Concorde
DYEAR=1956
DGENRE=Jazz
TTITLE0=Versailles
TTITLE1=Angel Eyes
TTITLE2=Fontessa
TTITLE3=Over the Rainbow
TTITLE4=Bluesology
TTITLE5=Willow Weep For Me
TTITLE6=Woody 'n' You
TTITLE7=Ralph's New Blues
TTITLE8=All Of You
TTITLE9=I'll Remember April
TTITLE10=Gershwin Medley
TTITLE11=Softly, As In A Morning Sunrise
TTITLE12=Concorde
EXTD=YEAR: 1956
EXTT0=
EXTT1=
EXTT2=
EXTT3=
EXTT4=
EXTT5=
EXTT6=
EXTT7=
EXTT8=
EXTT9=
EXTT10=
EXTT11=
EXTT12=
PLAYORDER=
